<svg xmlns="http://www.w3.org/2000/svg" width="1200" height="360" viewBox="0 0 1200 360">
  <style>
    .box { fill:#fffaf0; stroke:#b7791f; stroke-width:2; rx:10; ry:10; }
    .title { font: 600 18px Arial, sans-serif; fill:#744210; }
    .label { font: 14px Arial, sans-serif; fill:#744210; }
    .arrow { stroke:#2d3748; stroke-width:2; marker-end:url(#arrow); }
  </style>
  <defs>
    <marker id="arrow" markerWidth="8" markerHeight="8" refX="7" refY="4" orient="auto">
      <polygon points="0,0 8,4 0,8" fill="#2d3748" />
    </marker>
  </defs>

  <text x="30" y="34" class="title">AD Editor — UX Flow</text>

  <rect class="box" x="30" y="110" width="180" height="60"/><text x="58" y="145" class="label">Select workspace</text>
  <rect class="box" x="250" y="110" width="180" height="60"/><text x="287" y="145" class="label">Choose entity</text>
  <rect class="box" x="470" y="110" width="220" height="60"/><text x="500" y="145" class="label">Search / Sort table</text>
  <rect class="box" x="730" y="110" width="230" height="60"/><text x="760" y="145" class="label">Edit split-view form</text>
  <rect class="box" x="1000" y="60" width="150" height="60"/><text x="1048" y="95" class="label">Save</text>
  <rect class="box" x="1000" y="150" width="150" height="60"/><text x="1044" y="185" class="label">Delete</text>
  <rect class="box" x="1000" y="250" width="150" height="60"/><text x="1037" y="285" class="label">Build MD</text>

  <line class="arrow" x1="210" y1="140" x2="250" y2="140"/>
  <line class="arrow" x1="430" y1="140" x2="470" y2="140"/>
  <line class="arrow" x1="690" y1="140" x2="730" y2="140"/>
  <line class="arrow" x1="960" y1="130" x2="1000" y2="90"/>
  <line class="arrow" x1="960" y1="140" x2="1000" y2="180"/>
  <line class="arrow" x1="1075" y1="210" x2="1075" y2="250"/>
</svg>
